<?xml version="1.0" encoding="utf-8"?>
<!-- Generator: Adobe Illustrator 16.0.0, SVG Export Plug-In . SVG Version: 6.00 Build 0)  -->
<!DOCTYPE svg PUBLIC "-//W3C//DTD SVG 1.0//EN" "http://www.w3.org/TR/2001/REC-SVG-20010904/DTD/svg10.dtd">
<svg version="1.0" id="Calque_1" xmlns="http://www.w3.org/2000/svg" xmlns:xlink="http://www.w3.org/1999/xlink" x="0px" y="0px"
	 width="85.526px" height="86.03px" viewBox="0 0 85.526 86.03" enable-background="new 0 0 85.526 86.03" xml:space="preserve">
<g>
	<path fill="#F9B117" d="M52.851,55.319c0.025-0.021,0.047-0.047,0.073-0.064c2.617-2.482,4.332-5.912,4.609-9.749
		c0-0.259,0-0.952,0-0.952l-3.659-31.801l-3.017,0.054l1.016,35.481l-4.496-0.096V12.733l-2.926,0.02v35.67h-3.377v-35.67
		l-2.921-0.02l-0.009,35.668l-4.662,0.098l1.133-35.692l-2.76-0.074l-3.772,30.182c0,0-0.091,1.154-0.091,1.568
		c0,4.655,2.148,8.826,5.529,11.529c1.364,1.538,4.796,3.769,5.441,5.644v24.186l3.8,0.188l3.869-0.15V62.076
		C47.198,59.709,51.023,57.183,52.851,55.319z"/>
	<path fill="#F9B117" d="M70.59,10.265C52.663-5.079,25.601-2.978,10.266,14.936C-5.078,32.862-2.981,59.923,14.944,75.267
		c1.619,1.383,3.312,2.619,5.062,3.719l3.051-6.006c-1.293-0.845-2.552-1.771-3.754-2.803C4.18,57.233,2.418,34.416,15.353,19.3
		C28.296,4.187,51.118,2.409,66.236,15.35c15.109,12.928,16.88,35.77,3.945,50.879c-2.292,2.676-4.896,4.926-7.709,6.758
		l3.052,6.004c3.567-2.238,6.862-5.047,9.744-8.41C90.604,52.667,88.503,25.598,70.59,10.265z"/>
</g>
</svg>
